grf
version=1
nRows=6
nColumns=37
inDegrees=no
endheader
time	ground_force_1_vx	ground_force_1_vy	ground_force_1_vz	ground_force_1_px	ground_force_1_py	ground_force_1_pz	ground_moment_1_mx	ground_moment_1_my	ground_moment_1_mz	ground_force_2_vx	ground_force_2_vy	ground_force_2_vz	ground_force_2_px	ground_force_2_py	ground_force_2_pz	ground_moment_2_mx	ground_moment_2_my	ground_moment_2_mz	ground_force_3_vx	ground_force_3_vy	ground_force_3_vz	ground_force_3_px	ground_force_3_py	ground_force_3_pz	ground_moment_3_mx	ground_moment_3_my	ground_moment_3_mz	ground_force_4_vx	ground_force_4_vy	ground_force_4_vz	ground_force_4_px	ground_force_4_py	ground_force_4_pz	ground_moment_4_mx	ground_moment_4_my	ground_moment_4_mz
      1.64000000	      0.00000000	     -0.00000000	      0.00000000	      0.00000000	      0.00000000	      0.00000000	      0.00000000	      0.00000000	      0.00000000	      1.77017546	     -4.31230783	   -723.14984131	   -271.04128219	  -1056.78921239	      0.00000000	      0.00000000	     -0.00000000	  -1796.49118358	      0.00000000	     -0.00000000	      0.00000000	      0.00000000	      0.00000000	      0.00000000	      0.00000000	      0.00000000	      0.00000000	    -34.88196424	     16.02863045	     76.96691895	    599.18101422	   -562.08621585	      0.00000000	      0.00000000	      0.00000000	     41.54972745
      1.65000000	      0.00000000	     -0.00000000	      0.00000000	      0.00000000	      0.00000000	      0.00000000	      0.00000000	      0.00000000	      0.00000000	      0.07539454	     -1.77570629	   -721.08410645	   -269.38389716	  -1056.97158243	      0.00000000	     -0.00000000	     -0.00000000	  -1884.11362865	      0.00000000	     -0.00000000	      0.00000000	      0.00000000	      0.00000000	      0.00000000	      0.00000000	      0.00000000	      0.00000000	    -35.19854214	     16.14616892	     75.99433899	    603.80611843	   -564.80113488	      0.00000000	      0.00000000	      0.00000000	     76.62820930
      1.66000000	      0.00000000	     -0.00000000	      0.00000000	      0.00000000	      0.00000000	      0.00000000	      0.00000000	      0.00000000	      0.00000000	     -0.57648969	      0.21945041	   -716.35864258	   -267.53421387	  -1057.51343038	      0.00000000	      0.00000000	     -0.00000000	  -1903.45882277	      0.00000000	     -0.00000000	      0.00000000	      0.00000000	      0.00000000	      0.00000000	      0.00000000	      0.00000000	      0.00000000	    -34.66844418	     16.13962858	     74.75280762	    607.25656148	   -565.17011011	      0.00000000	      0.00000000	     -0.00000000	    -85.50531483
      1.67000000	      0.00000000	     -0.00000000	      0.00000000	      0.00000000	      0.00000000	      0.00000000	      0.00000000	      0.00000000	      0.00000000	     -1.44727659	      2.20027041	   -710.32946777	   -266.71308892	  -1057.18341545	      0.00000000	      0.00000000	      0.00000000	  -1866.32099469	      0.00000000	     -0.00000000	      0.00000000	      0.00000000	      0.00000000	      0.00000000	      0.00000000	      0.00000000	      0.00000000	    -34.99117520	     16.06282922	     75.61752319	    605.97458124	   -563.12684872	      0.00000000	      0.00000000	     -0.00000000	     -6.17910065
      1.68000000	      0.00000000	     -0.00000000	      0.00000000	      0.00000000	      0.00000000	      0.00000000	      0.00000000	      0.00000000	      0.00000000	     -1.92128563	      2.44131613	   -706.71301270	   -266.47480798	  -1058.10471927	      0.00000000	      0.00000000	     -0.00000000	  -1728.32034353	      0.00000000	     -0.00000000	      0.00000000	      0.00000000	      0.00000000	      0.00000000	      0.00000000	      0.00000000	      0.00000000	    -34.61408474	     16.11731832	     75.24192810	    606.77524879	   -567.27301401	      0.00000000	      0.00000000	     -0.00000000	    -20.21850186
      1.69000000	      0.00000000	     -0.00000000	      0.00000000	      0.00000000	      0.00000000	      0.00000000	      0.00000000	      0.00000000	      0.00000000	     -0.58942103	      2.64525366	   -701.71807861	   -267.40944332	  -1058.16304647	      0.00000000	      0.00000000	     -0.00000000	  -1572.38510582	      0.00000000	     -0.00000000	      0.00000000	      0.00000000	      0.00000000	      0.00000000	      0.00000000	      0.00000000	      0.00000000	    -34.74533324	     15.87653178	     76.15661621	    601.46963561	   -561.49005197	      0.00000000	      0.00000000	     -0.00000000	     -6.30774825
